<svg width="523" height="583" viewBox="0 0 523 583" fill="none" xmlns="http://www.w3.org/2000/svg">
<path d="M373.159 276.494L312.276 280.494C301.632 211.021 308.011 75.2163 404.757 33.4812C415.887 28.6797 431.462 20.238 441.848 23.0562C452.233 25.8745 455.97 43.5741 460.572 54.109C498.752 141.511 417.588 234.925 373.159 276.494Z" stroke="#FF9D23" stroke-width="45"/>
<path d="M142.841 276.494L203.724 280.494C214.368 211.021 207.989 75.2163 111.243 33.4812C100.113 28.6797 84.538 20.238 74.1523 23.0562C63.7667 25.8745 60.0298 43.5741 55.4279 54.109C17.2477 141.511 98.4123 234.925 142.841 276.494Z" stroke="#476EAE" stroke-width="45"/>
<path d="M360.5 257.994C450.246 257.994 523 330.747 523 420.494C523 510.24 450.246 582.994 360.5 582.994C328.384 582.994 298.381 573.654 273.14 557.535C272.068 556.85 271.005 556.153 269.95 555.444C281.97 545.861 292.68 534.705 301.771 522.289C319.034 532.275 339.07 537.994 360.5 537.994C425.393 537.994 478 485.387 478 420.494C478 355.6 425.393 302.994 360.5 302.994C295.607 302.994 243 355.6 243 420.494C243 439.722 247.618 457.874 255.812 473.903C247.89 487.713 236.991 499.595 223.99 508.677C207.555 483.286 198 453.008 198 420.494C198 330.747 270.754 257.994 360.5 257.994Z" fill="#FF9D23"/>
<path d="M162.5 257.994C196.023 257.994 227.174 268.146 253.049 285.541C241.027 295.125 230.315 306.281 221.224 318.699C203.947 308.71 183.891 302.994 162.5 302.994C97.6065 302.994 45 355.6 45 420.494C45 485.387 97.6065 537.994 162.5 537.994C227.393 537.994 280 485.387 280 420.494C280 401.261 275.378 383.108 267.187 367.083C275.108 353.273 286.007 341.389 299.009 332.307C315.451 357.707 325 387.984 325 420.494C325 510.24 252.246 582.994 162.5 582.994C72.7537 582.994 0 510.24 0 420.494C0 330.747 72.7537 257.994 162.5 257.994Z" fill="#476EAE"/>
</svg>
